PathFileType	4	(X/Y/Z)	c:/Users/goper/Files/vsCode/490R/osim_files/A06/A06_Slow_05.trc
DataRate	CameraRate	NumFrames	NumMarkers	Units                	OrigDataRate	OrigDataStartFrame	OrigNumFrames
120.00	120.00	8	36	mm	120.0	550	1466
                Frame#	Time	LPSIS			LASIS			LTH1			LTH2			LTH3			LTH4			LLFE			LMFE			LSH1			LSH2			LSH3			LSH4			LLMAL			LMMAL			LCAL			LMTP5			LTOE			LMTP1			RPSIS			RASIS			RTH1			RTH2			RTH3			RTH4			RLFE			RMFE			RSH1			RSH2			RSH3			RSH4			RLMAL			RMMAL			RCAL			RMTP1			RTOE			RMTP5		
		X1	Y1	Z1	X2	Y2	Z2	X3	Y3	Z3	X4	Y4	Z4	X5	Y5	Z5	X6	Y6	Z6	X7	Y7	Z7	X8	Y8	Z8	X9	Y9	Z9	X10	Y10	Z10	X11	Y11	Z11	X12	Y12	Z12	X13	Y13	Z13	X14	Y14	Z14	X15	Y15	Z15	X16	Y16	Z16	X17	Y17	Z17	X18	Y18	Z18	X19	Y19	Z19	X20	Y20	Z20	X21	Y21	Z21	X22	Y22	Z22	X23	Y23	Z23	X24	Y24	Z24	X25	Y25	Z25	X26	Y26	Z26	X27	Y27	Z27	X28	Y28	Z28	X29	Y29	Z29	X30	Y30	Z30	X31	Y31	Z31	X32	Y32	Z32	X33	Y33	Z33	X34	Y34	Z34	X35	Y35	Z35	X36	Y36	Z36

550	4.57500	1118.47351	1000.27722	305.45822	931.39178	958.59119	384.61923	904.56262	599.37622	430.69681	883.67706	563.75098	424.58786	845.19452	622.74231	419.97479	834.93964	583.20428	416.28110	839.61688	502.34750	410.60495	835.73651	499.61624	297.44098	925.76666	432.01865	420.59491	937.34076	388.15146	425.02390	866.99677	410.87189	415.03857	882.98901	371.99289	417.25272	1023.53137	144.93877	377.18399	998.18756	154.38913	296.65869	1086.53125	162.29779	323.86185	935.21179	57.69463	394.39874	887.71631	69.24577	341.85495	0.00000	0.00000	0.00000	1109.00525	1009.30933	174.46173	929.98822	971.20490	126.30199	1065.27441	597.03278	98.06163	1062.06726	554.14404	99.12380	1002.73792	594.53027	105.22266	1007.82050	549.81226	104.06178	1044.68958	439.13443	127.89613	1041.49023	442.83127	217.53873	1075.35730	285.87326	146.79749	1077.62146	238.22432	150.46556	1013.15900	277.02600	157.60831	1024.39856	230.19969	155.41280	1087.61816	104.53586	146.73111	1073.23401	109.61620	228.89047	1143.46289	86.48533	196.49968	941.36566	57.93527	220.78497	926.10675	69.22458	179.57056	955.01660	53.83417	133.09972
551	4.58333	1111.82996	1000.23419	305.21652	924.82935	958.26257	384.63800	895.59436	600.07495	430.65219	874.38306	564.68390	424.46307	836.48413	623.00787	419.16034	825.33234	583.97156	415.31354	829.79144	503.73068	410.41281	823.00745	501.66864	298.20911	913.42432	429.85916	419.85358	921.89050	384.65952	424.76349	854.11096	410.82062	414.56595	868.63306	371.83069	416.81519	998.45874	138.88789	376.35071	972.81134	149.31465	295.93726	1061.70068	153.63228	322.62241	906.59766	55.29620	394.22134	859.33136	68.84089	341.96567	0.00000	0.00000	0.00000	1102.23730	1009.34814	174.19385	923.06573	970.80225	126.25194	1060.89600	597.29480	97.98865	1057.88464	554.25995	99.12983	998.32880	594.30664	105.18421	1003.74353	549.42548	103.98782	1041.55615	439.02390	127.68568	1038.36194	442.88693	217.50427	1073.51501	286.16998	146.78987	1076.13098	238.56238	150.31708	1012.64209	277.42941	157.70151	1022.95264	230.13182	155.39011	1087.44495	104.67458	146.74484	1073.80847	110.18080	228.80077	1143.12170	86.49756	196.56274	941.06909	58.12536	220.58737	925.63068	68.88229	179.75728	954.93262	53.73659	133.13736
552	4.59167	1105.15649	1000.14563	305.04010	918.11987	957.87952	384.71616	887.07867	600.58197	430.53409	866.83148	565.52777	424.16309	828.35846	625.19141	419.61050	816.95166	585.26642	415.64642	820.32294	504.83969	410.27750	817.40143	501.51010	298.22635	901.59564	427.64642	419.64905	907.86658	382.08066	424.31256	841.42773	412.10898	414.23102	854.06622	371.65109	416.62860	973.06262	133.04459	375.59259	947.78748	143.99602	295.10666	1036.36487	145.06807	321.43454	877.77771	53.58807	394.44083	830.72571	69.01643	342.53287	853.27515	70.21760	302.60538	1095.44202	1009.33588	174.03189	916.36548	970.63690	126.23502	1056.52405	597.52563	97.96388	1053.68115	554.46179	99.25951	993.96033	593.99994	105.17477	999.48431	548.96924	104.20386	1038.38281	439.10223	127.71770	1035.76758	443.03687	217.51997	1071.58618	286.51508	146.77199	1074.61267	238.90683	150.34860	1011.02350	277.42969	157.64398	1021.32935	229.99437	155.51274	1087.30273	104.84186	146.75520	1072.90002	109.74569	228.91377	1142.99414	86.65641	196.60432	940.96454	57.97334	220.58916	925.91913	68.82582	179.66875	954.98572	53.76551	133.24823
553	4.60000	1098.38232	999.92352	304.94202	911.41034	957.41760	384.79343	878.90948	600.89099	430.45651	856.39752	565.27289	425.63052	820.25806	625.76447	419.56219	808.36511	585.91644	415.01468	811.25024	505.67902	410.11279	808.65936	502.32263	298.59503	889.75104	425.25208	419.21323	894.36053	379.93536	423.72174	828.63257	412.19089	413.81259	839.82727	372.11224	416.79572	947.79492	127.59159	375.17331	922.20282	139.58565	294.63797	1010.82544	136.95735	320.39420	848.98346	52.45186	394.69077	802.35236	69.62707	343.08035	823.66779	69.52540	303.51724	1088.68616	1009.29773	173.91345	909.49219	970.11993	126.29614	1052.06860	597.70160	97.98666	1049.66235	554.70880	99.28203	989.47723	593.60925	105.34066	995.41351	548.67639	104.23457	1035.28638	439.18527	127.74200	1032.12891	442.96634	217.53882	1069.71179	286.83560	146.77742	1073.06885	239.29213	150.40106	1009.21490	277.33984	157.68588	1019.70288	230.92917	155.58276	1087.14282	104.97678	146.76004	1072.75757	109.83671	228.93024	1142.90100	86.84021	196.62772	940.89160	57.85195	220.61810	925.81793	68.66620	179.69278	954.89764	53.65757	133.30688
554	4.60833	1091.57275	999.72314	304.95288	904.60858	956.92084	384.87021	870.42963	601.36389	430.46368	848.38330	566.11182	425.11725	811.61902	626.40735	419.88937	800.66119	586.80817	414.92236	802.70728	506.27280	409.94489	800.34058	502.80771	298.97348	877.79236	422.48776	418.65088	880.48096	377.23441	423.33105	815.99005	412.19519	413.36526	825.57281	371.18695	416.36487	921.92310	122.79681	374.83743	896.09631	135.34572	294.21567	984.94568	129.06172	319.56656	820.34192	51.84296	395.18024	774.17645	71.23678	344.29504	795.06592	69.62785	304.18933	1081.83533	1009.19025	173.92986	902.86133	969.81512	126.26843	1047.58679	597.89819	98.04420	1045.53552	554.87750	99.31365	985.14398	593.37311	105.28855	991.38336	548.50189	104.25279	1032.18079	439.39337	127.96692	1029.43555	443.13995	217.56625	1067.76294	287.14902	146.79980	1071.51074	239.64037	150.44119	1007.40204	277.21918	157.65767	1019.53937	230.42377	154.80960	1086.97754	105.11724	146.77144	1073.27295	110.37486	228.88972	1142.77710	86.96896	196.66315	940.81555	57.73235	220.64745	925.72675	68.80248	179.87344	955.10577	54.04445	133.05873
555	4.61667	1084.70886	999.46594	305.07565	897.86981	956.61652	384.94986	863.51984	601.22797	430.02789	840.86115	565.90326	425.13165	805.10651	625.32666	418.86017	792.96844	586.58649	415.09329	794.45972	506.58453	409.71365	791.95428	502.91296	299.12289	866.32758	419.94421	418.53247	866.46039	374.06238	423.44934	804.46674	413.08231	413.95340	811.62756	371.40750	416.58139	896.19739	118.35440	374.68954	870.85889	132.74307	294.53049	959.19580	121.86873	318.96469	791.36584	51.96828	395.85693	745.98248	73.18398	345.06583	766.56305	70.61128	304.87073	1074.99036	1009.04077	174.00433	896.06097	969.35236	126.31377	1043.14160	598.08356	98.07458	1041.36206	555.01349	99.35648	980.68134	593.02972	105.36712	987.28339	548.24750	104.27439	1028.94556	439.34808	127.83795	1025.74890	443.05524	217.59653	1065.82031	287.53265	146.79199	1069.92017	240.06049	150.53481	1005.49542	277.12582	157.67754	1018.19202	230.77380	154.88797	1086.76025	105.24123	146.80197	1071.89563	109.39751	229.20546	1142.66589	87.11391	196.71367	940.88715	57.81868	220.62630	925.45551	68.64297	179.90091	955.03790	53.98768	133.08276
556	4.62500	1077.73816	999.20062	305.28500	891.09943	956.54932	384.49881	856.61243	600.90326	429.82306	833.59851	565.60687	425.02716	798.02295	626.09100	419.14236	785.75330	586.37512	415.02280	786.70276	506.64725	409.49023	782.71985	502.12204	299.00787	854.84973	417.18289	418.19928	852.80145	371.39880	423.14478	792.39655	413.53244	414.02362	797.92725	370.87094	416.16147	870.34222	114.44601	374.69434	845.03021	130.25378	294.70187	932.76599	114.85014	318.92731	762.71478	52.75927	396.41916	718.12469	76.00418	345.75146	738.49536	72.45296	305.45355	1068.12903	1008.93115	174.17630	889.22076	968.84326	126.45161	1038.60022	598.27588	98.17529	1037.22302	555.19177	99.43763	976.27356	592.74622	105.41415	983.42987	548.28729	104.22401	1025.75403	439.43115	127.87287	1022.60144	443.12207	217.67529	1064.00012	287.87396	146.44867	1068.35718	240.41820	150.49380	1003.61206	277.09268	157.74062	1016.65503	230.81116	154.89668	1086.56506	105.38125	146.85828	1071.34985	108.92724	229.39850	1142.57117	87.32738	196.72916	940.61932	57.73534	220.58513	925.41028	68.25364	179.72820	954.81219	53.63773	132.77032
557	4.63333	1070.62659	998.78308	305.56580	883.38812	955.70660	384.79861	849.82483	600.33032	429.68927	826.68585	565.01129	424.91721	790.60791	626.11401	419.88748	778.98120	585.98450	414.94092	779.16327	506.40311	409.14389	774.72668	501.96472	298.98364	843.44257	414.40317	417.85071	839.30536	368.79758	422.94180	780.91699	413.23053	413.61984	784.40833	370.73679	416.06857	844.50348	111.08750	374.94696	819.62299	127.84042	295.03806	906.22253	108.03830	318.26776	734.15393	54.30809	396.94824	691.24225	80.34208	345.83725	710.74792	74.96452	306.02234	1061.25696	1008.78510	174.47105	882.25812	968.13147	126.62844	1034.12463	598.45685	98.25547	1033.10071	555.39124	99.51036	971.77466	592.46155	105.49471	979.08643	547.85345	104.42763	1022.61664	439.52487	127.94210	1019.33899	443.18265	217.73476	1061.94360	288.45212	147.02898	1066.74963	240.81166	150.51654	1001.70612	277.02228	157.81598	1015.01251	230.52222	154.90623	1086.39856	105.54194	146.89284	1071.50037	109.66357	229.23456	1142.43347	87.55360	196.73753	940.41705	57.33524	220.34271	925.17175	68.12855	179.72931	954.37903	53.05432	133.18413
